<?xml version="1.0" encoding="utf-8"?>
<svg xmlns="http://www.w3.org/2000/svg" xmlns:xlink="http://www.w3.org/1999/xlink" style="margin: auto; background: rgba(0, 0, 0, 0) none repeat scroll 0% 0%; display: block; shape-rendering: auto;" width="200px" height="200px" viewBox="0 0 100 100" preserveAspectRatio="xMidYMid">
<g transform="translate(50 50)">
<g>
<animateTransform attributeName="transform" type="rotate" values="0;45" keyTimes="0;1" dur="0.6666666666666666s" repeatCount="indefinite"></animateTransform><path d="M28.91366458960192 -8 L42.91366458960192 -8 L42.91366458960192 8 L28.91366458960192 8 A30 30 0 0 1 26.101902549753255 14.78819405076849 L26.101902549753255 14.78819405076849 L36.00139748636492 24.687688987380156 L24.687688987380156 36.00139748636492 L14.788194050768492 26.101902549753255 A30 30 0 0 1 8.000000000000002 28.91366458960192 L8.000000000000002 28.91366458960192 L8.000000000000002 42.91366458960192 L-7.999999999999997 42.91366458960192 L-7.999999999999998 28.91366458960192 A30 30 0 0 1 -14.788194050768489 26.101902549753255 L-14.788194050768489 26.101902549753255 L-24.687688987380152 36.00139748636492 L-36.001397486364915 24.68768898738016 L-26.10190254975325 14.788194050768494 A30 30 0 0 1 -28.91366458960192 8.000000000000004 L-28.91366458960192 8.000000000000004 L-42.91366458960192 8.000000000000005 L-42.91366458960192 -7.999999999999995 L-28.91366458960192 -7.9999999999999964 A30 30 0 0 1 -26.101902549753255 -14.788194050768489 L-26.101902549753255 -14.788194050768489 L-36.00139748636492 -24.687688987380152 L-24.687688987380163 -36.001397486364915 L-14.788194050768496 -26.10190254975325 A30 30 0 0 1 -8.000000000000007 -28.91366458960192 L-8.000000000000007 -28.91366458960192 L-8.00000000000001 -42.91366458960192 L7.999999999999992 -42.91366458960192 L7.999999999999995 -28.91366458960192 A30 30 0 0 1 14.788194050768487 -26.10190254975326 L14.788194050768487 -26.10190254975326 L24.68768898738015 -36.00139748636492 L36.001397486364915 -24.687688987380163 L26.10190254975325 -14.788194050768498 A30 30 0 0 1 28.913664589601918 -8.000000000000009 M0 -16A16 16 0 1 0 0 16 A16 16 0 1 0 0 -16" fill="#ffffff"></path></g></g>
<!-- [ldio] generated by https://loading.io/ --></svg>